<?xml version="1.0" ?><svg viewBox="0 0 48 48" xmlns="http://www.w3.org/2000/svg" xmlns:xlink="http://www.w3.org/1999/xlink"><defs><style>.cls-1{fill:#e1eaf6;}.cls-2{fill:url(#linear-gradient);}.cls-3{fill:#eff3f9;}.cls-4{fill:#a7c1db;}.cls-5{fill:#ba8320;}.cls-6{fill:#fff;}</style><linearGradient gradientUnits="userSpaceOnUse" id="linear-gradient" x1="24" x2="24" y1="5.03" y2="40.35"><stop offset="0" stop-color="#f1f5f9"/><stop offset="1" stop-color="#d8e5f4"/></linearGradient></defs><title/><g id="icons"><g data-name="Layer 3" id="Layer_3"><path class="cls-1" d="M33,40.5H15a5,5,0,0,1-5-5v-25a5,5,0,0,1,5-5H27.52a6,6,0,0,1,4.27,1.77l4.44,4.44A6,6,0,0,1,38,16V35.5A5,5,0,0,1,33,40.5Z"/><path class="cls-2" d="M33,42.5H15a5,5,0,0,1-5-5v-25a5,5,0,0,1,5-5H27.52a6,6,0,0,1,4.27,1.77l4.44,4.44A6,6,0,0,1,38,18V37.5A5,5,0,0,1,33,42.5Z"/><path class="cls-3" d="M25.85,16.58a1.1,1.1,0,0,0-1.33.8L21.6,29.09a1.1,1.1,0,0,0,.8,1.33,1.15,1.15,0,0,0,.26,0,1.11,1.11,0,0,0,1.07-.83l2.92-11.71A1.1,1.1,0,0,0,25.85,16.58Zm-6.8,3.22a1.09,1.09,0,0,0-1.55,0l-2.93,2.92a1.1,1.1,0,0,0,0,1.56L17.5,27.2a1.05,1.05,0,0,0,.77.32,1.1,1.1,0,0,0,.78-1.87L16.9,23.5l2.15-2.15A1.09,1.09,0,0,0,19.05,19.8Zm14.63,2.92L30.75,19.8a1.1,1.1,0,0,0-1.55,1.55l2.15,2.15L29.2,25.65A1.1,1.1,0,0,0,30,27.52a1.05,1.05,0,0,0,.77-.32l2.93-2.92A1.1,1.1,0,0,0,33.68,22.72Z"/><path class="cls-4" d="M19.05,18.8a1.09,1.09,0,0,0-1.55,0l-2.93,2.92a1.1,1.1,0,0,0,0,1.56L17.5,26.2a1.05,1.05,0,0,0,.77.32,1.1,1.1,0,0,0,.78-1.87L16.9,22.5l2.15-2.15A1.09,1.09,0,0,0,19.05,18.8Zm6.8-3.22a1.1,1.1,0,0,0-1.33.8L21.6,28.09a1.1,1.1,0,0,0,.8,1.33,1.15,1.15,0,0,0,.26,0,1.11,1.11,0,0,0,1.07-.83l2.92-11.71A1.1,1.1,0,0,0,25.85,15.58Zm7.83,6.14L30.75,18.8a1.1,1.1,0,0,0-1.55,1.55l2.15,2.15L29.2,24.65A1.1,1.1,0,0,0,30,26.52a1.05,1.05,0,0,0,.77-.32l2.93-2.92A1.1,1.1,0,0,0,33.68,21.72Z"/><rect class="cls-5" height="8.77" rx="1.91" ry="1.91" width="17.93" x="24.07" y="31.34"/><path class="cls-6" d="M28.6,36h-.85v1.3a.6.6,0,0,1-.13.42.42.42,0,0,1-.33.14.41.41,0,0,1-.34-.14.57.57,0,0,1-.13-.42V33.8a.57.57,0,0,1,.14-.43.62.62,0,0,1,.45-.14H28.6a2.9,2.9,0,0,1,.82.09,1.19,1.19,0,0,1,.79.7,1.59,1.59,0,0,1,.11.59,1.29,1.29,0,0,1-.43,1.06A1.93,1.93,0,0,1,28.6,36Zm-.22-2.11h-.63v1.4h.63a2.06,2.06,0,0,0,.54-.06.62.62,0,0,0,.46-.64.67.67,0,0,0-.18-.49A1.16,1.16,0,0,0,28.38,33.93Z"/><path class="cls-6" d="M32,33.72V35h2V33.72a.57.57,0,0,1,.13-.42.39.39,0,0,1,.33-.14.45.45,0,0,1,.34.13.61.61,0,0,1,.13.43v3.62a.57.57,0,0,1-.13.42.42.42,0,0,1-.34.14.39.39,0,0,1-.33-.14.59.59,0,0,1-.13-.42V35.79H32v1.55a.57.57,0,0,1-.13.42.42.42,0,0,1-.34.14.39.39,0,0,1-.33-.14.64.64,0,0,1-.13-.42V33.72a.57.57,0,0,1,.13-.42.39.39,0,0,1,.33-.14.44.44,0,0,1,.34.13A.61.61,0,0,1,32,33.72Z"/><path class="cls-6" d="M37.75,36H36.9v1.3a.6.6,0,0,1-.13.42.42.42,0,0,1-.33.14.41.41,0,0,1-.34-.14.57.57,0,0,1-.13-.42V33.8a.57.57,0,0,1,.14-.43.64.64,0,0,1,.45-.14h1.19a2.85,2.85,0,0,1,.82.09,1.07,1.07,0,0,1,.48.26,1.19,1.19,0,0,1,.32.44,1.59,1.59,0,0,1,.1.59A1.29,1.29,0,0,1,39,35.67,1.93,1.93,0,0,1,37.75,36Zm-.22-2.11H36.9v1.4h.63a2.15,2.15,0,0,0,.55-.06.62.62,0,0,0,.33-.23.65.65,0,0,0,.12-.41.67.67,0,0,0-.18-.49A1.16,1.16,0,0,0,37.53,33.93Z"/><path class="cls-4" d="M36,16H30.83a2.33,2.33,0,0,1-2.33-2.33V9.5a.5.5,0,0,1,1,0v4.17A1.33,1.33,0,0,0,30.83,15H36a.5.5,0,0,1,0,1Z"/></g></g></svg>