<?xml version="1.0" ?><svg viewBox="0 0 48 48" xmlns="http://www.w3.org/2000/svg" xmlns:xlink="http://www.w3.org/1999/xlink"><defs><style>.cls-1{fill:#e1eaf6;}.cls-2{fill:url(#linear-gradient);}.cls-3{fill:#a7c1db;}.cls-4{fill:#828181;}.cls-5{fill:#fff;}.cls-6{fill:#eff4f9;}</style><linearGradient gradientUnits="userSpaceOnUse" id="linear-gradient" x1="24" x2="24" y1="5.03" y2="40.35"><stop offset="0" stop-color="#f1f5f9"/><stop offset="1" stop-color="#d8e5f4"/></linearGradient></defs><title/><g id="icons"><g data-name="Layer 3" id="Layer_3"><path class="cls-1" d="M33,40.5H15a5,5,0,0,1-5-5v-25a5,5,0,0,1,5-5H27.52a6,6,0,0,1,4.27,1.77l4.44,4.44A6,6,0,0,1,38,16V35.5A5,5,0,0,1,33,40.5Z"/><path class="cls-2" d="M33,42.5H15a5,5,0,0,1-5-5v-25a5,5,0,0,1,5-5H27.52a6,6,0,0,1,4.27,1.77l4.44,4.44A6,6,0,0,1,38,18V37.5A5,5,0,0,1,33,42.5Z"/><path class="cls-2" d="M33,42.5H15a5,5,0,0,1-5-5v-25a5,5,0,0,1,5-5H27.52a6,6,0,0,1,4.27,1.77l4.44,4.44A6,6,0,0,1,38,18V37.5A5,5,0,0,1,33,42.5Z"/><path class="cls-3" d="M36,16H30.83a2.33,2.33,0,0,1-2.33-2.33V9.5a.5.5,0,0,1,1,0v4.17A1.33,1.33,0,0,0,30.83,15H36a.5.5,0,0,1,0,1Z"/><rect class="cls-4" height="8.77" rx="1.91" ry="1.91" width="17.93" x="23.07" y="31.34"/><path class="cls-5" d="M29.14,34H27.05v1.13H29a.46.46,0,0,1,.31.09.35.35,0,0,1,.11.26.36.36,0,0,1-.1.25.44.44,0,0,1-.32.1H27.05v1.31h2.16a.45.45,0,0,1,.33.1.34.34,0,0,1,.12.27.31.31,0,0,1-.12.26.45.45,0,0,1-.33.11H26.69a.49.49,0,0,1-.57-.58V33.8a.73.73,0,0,1,.06-.32.37.37,0,0,1,.18-.19.78.78,0,0,1,.33-.06h2.45a.5.5,0,0,1,.33.1.35.35,0,0,1,.11.26.33.33,0,0,1-.11.26A.45.45,0,0,1,29.14,34Z"/><path class="cls-5" d="M32.18,36h-.86v1.3a.6.6,0,0,1-.13.42.42.42,0,0,1-.33.14.42.42,0,0,1-.34-.14.62.62,0,0,1-.13-.42V33.8a.53.53,0,0,1,.15-.43.61.61,0,0,1,.44-.14h1.2a2.82,2.82,0,0,1,.81.09,1.11,1.11,0,0,1,.49.26,1.17,1.17,0,0,1,.31.44,1.59,1.59,0,0,1,.11.59,1.3,1.3,0,0,1-.44,1.06A1.88,1.88,0,0,1,32.18,36ZM32,33.93h-.63v1.4H32a2.15,2.15,0,0,0,.55-.06.65.65,0,0,0,.34-.23.71.71,0,0,0,.11-.41.67.67,0,0,0-.18-.49A1.14,1.14,0,0,0,32,33.93Z"/><path class="cls-5" d="M38.16,36.45a1.42,1.42,0,0,1-.21.75,1.49,1.49,0,0,1-.63.52,2.45,2.45,0,0,1-1,.18,2.21,2.21,0,0,1-1.12-.25,1.52,1.52,0,0,1-.51-.5,1.1,1.1,0,0,1-.2-.6.4.4,0,0,1,.12-.29.41.41,0,0,1,.3-.12.33.33,0,0,1,.25.1.67.67,0,0,1,.17.28,2,2,0,0,0,.19.36.89.89,0,0,0,.29.25,1.08,1.08,0,0,0,.48.09A1.12,1.12,0,0,0,37,37a.58.58,0,0,0,.25-.48.46.46,0,0,0-.14-.37.81.81,0,0,0-.36-.22c-.14-.05-.34-.1-.59-.16a4.63,4.63,0,0,1-.82-.27,1.41,1.41,0,0,1-.53-.42,1.2,1.2,0,0,1,0-1.34,1.29,1.29,0,0,1,.6-.46,2.53,2.53,0,0,1,.92-.15,2.3,2.3,0,0,1,.73.1,1.56,1.56,0,0,1,.51.28,1.19,1.19,0,0,1,.3.36.92.92,0,0,1,.09.38.44.44,0,0,1-.12.3.38.38,0,0,1-.29.13.33.33,0,0,1-.24-.08.83.83,0,0,1-.18-.26,1.36,1.36,0,0,0-.3-.41.89.89,0,0,0-.57-.14,1,1,0,0,0-.58.15.5.5,0,0,0-.22.38.36.36,0,0,0,.08.24.7.7,0,0,0,.2.18l.27.11.44.12a5.52,5.52,0,0,1,.71.2,2,2,0,0,1,.53.26,1.12,1.12,0,0,1,.35.4A1.29,1.29,0,0,1,38.16,36.45Z"/><path class="cls-6" d="M34,21.5v-2H32V20H27.75V17.25h-7.5V20H16v-.5H14v2h2V21h4.25v.32A9,9,0,0,0,15,29.5h2a7,7,0,0,1,3.25-5.89v1.14h7.5V23.6A7,7,0,0,1,31,29.5h2a9,9,0,0,0-5.25-8.17V21H32v.5Zm-8.25,1.25h-3.5v-3.5h3.5Z"/><path class="cls-3" d="M34,20.5v-2H32V19H27.75V16.25h-7.5V19H16v-.5H14v2h2V20h4.25v.32A9,9,0,0,0,15,28.5h2a7,7,0,0,1,3.25-5.89v1.14h7.5V22.6A7,7,0,0,1,31,28.5h2a9,9,0,0,0-5.25-8.17V20H32v.5Zm-8.25,1.25h-3.5v-3.5h3.5Z"/></g></g></svg>