<?xml version="1.0" ?><svg viewBox="0 0 48 48" xmlns="http://www.w3.org/2000/svg" xmlns:xlink="http://www.w3.org/1999/xlink"><defs><style>.cls-1{fill:#e1eaf6;}.cls-2{fill:url(#linear-gradient);}.cls-3{fill:#a7c1db;}.cls-4{fill:#eef3f8;}.cls-5{fill:#757575;}.cls-6{fill:#fff;}</style><linearGradient gradientUnits="userSpaceOnUse" id="linear-gradient" x1="24" x2="24" y1="5.03" y2="40.35"><stop offset="0" stop-color="#f1f5f9"/><stop offset="1" stop-color="#d8e5f4"/></linearGradient></defs><title/><g id="icons"><g data-name="Layer 3" id="Layer_3"><path class="cls-1" d="M33,40.5H15a5,5,0,0,1-5-5v-25a5,5,0,0,1,5-5H27.52a6,6,0,0,1,4.27,1.77l4.44,4.44A6,6,0,0,1,38,16V35.5A5,5,0,0,1,33,40.5Z"/><path class="cls-2" d="M33,42.5H15a5,5,0,0,1-5-5v-25a5,5,0,0,1,5-5H27.52a6,6,0,0,1,4.27,1.77l4.44,4.44A6,6,0,0,1,38,18V37.5A5,5,0,0,1,33,42.5Z"/><path class="cls-3" d="M36,16H30.83a2.33,2.33,0,0,1-2.33-2.33V9.5a.5.5,0,0,1,1,0v4.17A1.33,1.33,0,0,0,30.83,15H36a.5.5,0,0,1,0,1Z"/><rect class="cls-4" height="2" width="19" x="14" y="20.5"/><rect class="cls-4" height="2" width="19" x="14" y="24.5"/><rect class="cls-4" height="2" width="19" x="14" y="28.5"/><rect class="cls-4" height="2" width="8" x="14" y="32.5"/><path class="cls-3" d="M14,29.5H33v-2H14Zm0,4h8v-2H14Zm0-14v2H33v-2Zm0,6H33v-2H14Z"/><rect class="cls-5" height="8.77" rx="1.91" ry="1.91" width="17.93" x="24.07" y="31.34"/><path class="cls-6" d="M30.38,34.26h-1v3.33a.63.63,0,0,1-.13.43.42.42,0,0,1-.34.14.44.44,0,0,1-.33-.14.6.6,0,0,1-.13-.43V34.26h-1a.51.51,0,0,1-.35-.11.34.34,0,0,1-.12-.27.37.37,0,0,1,.12-.29.58.58,0,0,1,.35-.1h3a.53.53,0,0,1,.36.11.35.35,0,0,1,.12.28.34.34,0,0,1-.12.27A.53.53,0,0,1,30.38,34.26Z"/><path class="cls-6" d="M31.24,37.19l1-1.5-.87-1.33a2.3,2.3,0,0,1-.18-.34.66.66,0,0,1-.06-.27.33.33,0,0,1,.11-.23.44.44,0,0,1,.29-.11.38.38,0,0,1,.3.12,2.46,2.46,0,0,1,.3.42l.69,1.12L33.59,34l.15-.24.13-.17a.38.38,0,0,1,.13-.09.31.31,0,0,1,.17,0,.42.42,0,0,1,.29.11.34.34,0,0,1,.11.25,1.15,1.15,0,0,1-.24.57l-.91,1.35,1,1.5a3.25,3.25,0,0,1,.19.33.57.57,0,0,1,.06.24.34.34,0,0,1-.06.2.36.36,0,0,1-.15.15.51.51,0,0,1-.44,0,.67.67,0,0,1-.15-.14l-.21-.32-.8-1.27L32,37.69l-.15.22a.53.53,0,0,1-.1.12.5.5,0,0,1-.14.1.54.54,0,0,1-.19,0,.39.39,0,0,1-.28-.1.41.41,0,0,1-.11-.3A1.08,1.08,0,0,1,31.24,37.19Z"/><path class="cls-6" d="M38.26,34.26h-1v3.33a.58.58,0,0,1-.13.43.42.42,0,0,1-.33.14.46.46,0,0,1-.34-.14.6.6,0,0,1-.13-.43V34.26h-1a.53.53,0,0,1-.36-.11.4.4,0,0,1,0-.56.56.56,0,0,1,.35-.1h2.95a.53.53,0,0,1,.36.11.35.35,0,0,1,.12.28.34.34,0,0,1-.12.27A.53.53,0,0,1,38.26,34.26Z"/></g></g></svg>