<?xml version="1.0" ?><svg viewBox="0 0 48 48" xmlns="http://www.w3.org/2000/svg" xmlns:xlink="http://www.w3.org/1999/xlink"><defs><style>.cls-1{fill:#e1eaf6;}.cls-2{fill:url(#linear-gradient);}.cls-3{fill:#a7c1db;}.cls-4{fill:#eba90a;}.cls-5{fill:#fff;}.cls-6{fill:#eff4f9;}</style><linearGradient gradientUnits="userSpaceOnUse" id="linear-gradient" x1="24" x2="24" y1="5.03" y2="40.35"><stop offset="0" stop-color="#f1f5f9"/><stop offset="1" stop-color="#d8e5f4"/></linearGradient></defs><title/><g id="icons"><g data-name="Layer 3" id="Layer_3"><path class="cls-1" d="M33,40.5H15a5,5,0,0,1-5-5v-25a5,5,0,0,1,5-5H27.52a6,6,0,0,1,4.27,1.77l4.44,4.44A6,6,0,0,1,38,16V35.5A5,5,0,0,1,33,40.5Z"/><path class="cls-2" d="M33,42.5H15a5,5,0,0,1-5-5v-25a5,5,0,0,1,5-5H27.52a6,6,0,0,1,4.27,1.77l4.44,4.44A6,6,0,0,1,38,18V37.5A5,5,0,0,1,33,42.5Z"/><path class="cls-3" d="M36,16H30.83a2.33,2.33,0,0,1-2.33-2.33V9.5a.5.5,0,0,1,1,0v4.17A1.33,1.33,0,0,0,30.83,15H36a.5.5,0,0,1,0,1Z"/><rect class="cls-4" height="8.77" rx="1.91" ry="1.91" width="17.93" x="23.07" y="31.34"/><path class="cls-5" d="M32.16,37.31l-.22-.58H30.07l-.21.59a2.2,2.2,0,0,1-.22.46.35.35,0,0,1-.3.12.45.45,0,0,1-.31-.12.42.42,0,0,1-.14-.3.46.46,0,0,1,0-.19A2.53,2.53,0,0,1,29,37l1.17-3c0-.09.08-.19.12-.31a2.09,2.09,0,0,1,.15-.3.76.76,0,0,1,.21-.19.67.67,0,0,1,.33-.07.66.66,0,0,1,.32.07.55.55,0,0,1,.21.19,1.19,1.19,0,0,1,.13.25c0,.09.09.21.14.35L33,37a1.32,1.32,0,0,1,.14.49.41.41,0,0,1-.13.29.44.44,0,0,1-.32.13.38.38,0,0,1-.19,0,.41.41,0,0,1-.13-.1,1,1,0,0,1-.11-.21ZM30.32,36h1.37L31,34.14Z"/><path class="cls-5" d="M33.87,37.34V33.72A.62.62,0,0,1,34,33.3a.42.42,0,0,1,.33-.14.42.42,0,0,1,.34.13.61.61,0,0,1,.13.43v3.62a.57.57,0,0,1-.13.42.4.4,0,0,1-.34.14.42.42,0,0,1-.33-.14A.64.64,0,0,1,33.87,37.34Z"/><path class="cls-6" d="M34,21.5v-2H32V20H27.75V17.25h-7.5V20H16v-.5H14v2h2V21h4.25v.32A9,9,0,0,0,15,29.5h2a7,7,0,0,1,3.25-5.89v1.14h7.5V23.6A7,7,0,0,1,31,29.5h2a9,9,0,0,0-5.25-8.17V21H32v.5Zm-8.25,1.25h-3.5v-3.5h3.5Z"/><path class="cls-3" d="M34,20.5v-2H32V19H27.75V16.25h-7.5V19H16v-.5H14v2h2V20h4.25v.32A9,9,0,0,0,15,28.5h2a7,7,0,0,1,3.25-5.89v1.14h7.5V22.6A7,7,0,0,1,31,28.5h2a9,9,0,0,0-5.25-8.17V20H32v.5Zm-8.25,1.25h-3.5v-3.5h3.5Z"/></g></g></svg>