<?xml version="1.0" ?><svg viewBox="0 0 48 48" xmlns="http://www.w3.org/2000/svg" xmlns:xlink="http://www.w3.org/1999/xlink"><defs><style>.cls-1{fill:#e1eaf6;}.cls-2{fill:url(#linear-gradient);}.cls-3{fill:#a7c1db;}.cls-4{fill:url(#linear-gradient-2);}.cls-5{fill:url(#linear-gradient-3);}.cls-6{fill:#fff;}</style><linearGradient gradientUnits="userSpaceOnUse" id="linear-gradient" x1="24" x2="24" y1="5.03" y2="40.35"><stop offset="0" stop-color="#f1f5f9"/><stop offset="1" stop-color="#d8e5f4"/></linearGradient><linearGradient gradientUnits="userSpaceOnUse" id="linear-gradient-2" x1="33.99" x2="33.99" y1="21.51" y2="30.34"><stop offset="0" stop-color="#7db700"/><stop offset="1" stop-color="#618e00"/></linearGradient><linearGradient gradientUnits="userSpaceOnUse" id="linear-gradient-3" x1="33.99" x2="33.99" y1="22.24" y2="29.91"><stop offset="0" stop-color="#8ed000"/><stop offset="1" stop-color="#70a300"/></linearGradient></defs><title/><g id="icons"><g data-name="Layer 3" id="Layer_3"><path class="cls-1" d="M33,40.5H15a5,5,0,0,1-5-5v-25a5,5,0,0,1,5-5H27.52a6,6,0,0,1,4.27,1.77l4.44,4.44A6,6,0,0,1,38,16V35.5A5,5,0,0,1,33,40.5Z"/><path class="cls-2" d="M33,42.5H15a5,5,0,0,1-5-5v-25a5,5,0,0,1,5-5H27.52a6,6,0,0,1,4.27,1.77l4.44,4.44A6,6,0,0,1,38,18V37.5A5,5,0,0,1,33,42.5Z"/><path class="cls-3" d="M36,16H30.83a2.33,2.33,0,0,1-2.33-2.33V9.5a.5.5,0,0,1,1,0v4.17A1.33,1.33,0,0,0,30.83,15H36a.5.5,0,0,1,0,1Z"/><path class="cls-3" d="M34,21.43a7.63,7.63,0,1,0,4,14.1v-13A7.62,7.62,0,0,0,34,21.43Z"/><path class="cls-4" d="M41.62,27.05A7.63,7.63,0,1,1,34,19.43,7.64,7.64,0,0,1,41.62,27.05Z"/><path class="cls-5" d="M34,33.68a6.63,6.63,0,1,1,6.63-6.63A6.63,6.63,0,0,1,34,33.68Z"/><path class="cls-6" d="M32.84,28.21H30.45c0-.21-.06-.41-.08-.59a5.12,5.12,0,0,1,0-.56,5.4,5.4,0,0,1,0-.56c0-.19.05-.39.08-.61h2.39V23.31a4.41,4.41,0,0,1,.58-.1,5.3,5.3,0,0,1,.57,0l.56,0a5.14,5.14,0,0,1,.61.1v2.58h2.37c0,.22.08.42.1.6a5.21,5.21,0,0,1,0,.55,5.12,5.12,0,0,1,0,.56c0,.19-.06.4-.1.61H35.16V30.8l-.6.09a3.48,3.48,0,0,1-.55,0,6.53,6.53,0,0,1-1.17-.13Z"/></g></g></svg>