<?xml version="1.0" ?><svg viewBox="0 0 48 48" xmlns="http://www.w3.org/2000/svg" xmlns:xlink="http://www.w3.org/1999/xlink"><defs><style>.cls-1{fill:#e1eaf6;}.cls-2{fill:url(#linear-gradient);}.cls-3{fill:#a7c1db;}.cls-4{fill:#9ac53b;}.cls-5{fill:#fff;}.cls-6{fill:#eff4f9;}</style><linearGradient gradientUnits="userSpaceOnUse" id="linear-gradient" x1="24" x2="24" y1="5.03" y2="40.35"><stop offset="0" stop-color="#f1f5f9"/><stop offset="1" stop-color="#d8e5f4"/></linearGradient></defs><title/><g id="icons"><g data-name="Layer 3" id="Layer_3"><path class="cls-1" d="M33,40.5H15a5,5,0,0,1-5-5v-25a5,5,0,0,1,5-5H27.52a6,6,0,0,1,4.27,1.77l4.44,4.44A6,6,0,0,1,38,16V35.5A5,5,0,0,1,33,40.5Z"/><path class="cls-2" d="M33,42.5H15a5,5,0,0,1-5-5v-25a5,5,0,0,1,5-5H27.52a6,6,0,0,1,4.27,1.77l4.44,4.44A6,6,0,0,1,38,18V37.5A5,5,0,0,1,33,42.5Z"/><path class="cls-3" d="M36,16H30.83a2.33,2.33,0,0,1-2.33-2.33V9.5a.5.5,0,0,1,1,0v4.17A1.33,1.33,0,0,0,30.83,15H36a.5.5,0,0,1,0,1Z"/><rect class="cls-4" height="8.77" rx="1.91" ry="1.91" width="17.93" x="23.07" y="31.34"/><path class="cls-5" d="M26.47,36.93l1-1.5-.86-1.33a2.48,2.48,0,0,1-.19-.34.65.65,0,0,1-.06-.26.31.31,0,0,1,.12-.24.41.41,0,0,1,.29-.1.37.37,0,0,1,.3.11,4.09,4.09,0,0,1,.3.42l.69,1.12.73-1.12c.06-.09.12-.17.16-.24a1.11,1.11,0,0,1,.12-.16.38.38,0,0,1,.13-.1.47.47,0,0,1,.17,0,.39.39,0,0,1,.29.1.31.31,0,0,1,.11.25,1.15,1.15,0,0,1-.24.57l-.9,1.35,1,1.5a2,2,0,0,1,.19.33.61.61,0,0,1,.06.25.46.46,0,0,1-.05.2.5.5,0,0,1-.15.14.42.42,0,0,1-.22,0,.48.48,0,0,1-.22,0,.5.5,0,0,1-.15-.14l-.21-.31-.81-1.28-.86,1.31a1.76,1.76,0,0,1-.14.22,1.13,1.13,0,0,1-.1.13.67.67,0,0,1-.14.09.58.58,0,0,1-.19,0,.37.37,0,0,1-.28-.1.38.38,0,0,1-.12-.3A1.11,1.11,0,0,1,26.47,36.93Z"/><path class="cls-5" d="M31.43,33.72v3.34h1.88a.52.52,0,0,1,.35.11.36.36,0,0,1,.12.28.34.34,0,0,1-.12.27.51.51,0,0,1-.35.11H31.07a.61.61,0,0,1-.44-.14.59.59,0,0,1-.13-.44V33.72a.57.57,0,0,1,.13-.42.39.39,0,0,1,.33-.14.45.45,0,0,1,.34.13A.61.61,0,0,1,31.43,33.72Z"/><path class="cls-5" d="M37.64,36.45a1.36,1.36,0,0,1-.85,1.27,2.42,2.42,0,0,1-1,.18,2.24,2.24,0,0,1-1.12-.25,1.52,1.52,0,0,1-.51-.5,1.09,1.09,0,0,1-.19-.6.44.44,0,0,1,.11-.29.41.41,0,0,1,.3-.12.33.33,0,0,1,.25.1.68.68,0,0,1,.18.28,2,2,0,0,0,.19.36.76.76,0,0,0,.28.25,1.16,1.16,0,0,0,.49.09,1.09,1.09,0,0,0,.67-.19.59.59,0,0,0,.26-.48.5.5,0,0,0-.14-.37.81.81,0,0,0-.36-.22l-.59-.16a4.76,4.76,0,0,1-.83-.27,1.5,1.5,0,0,1-.53-.42,1.2,1.2,0,0,1,0-1.34,1.34,1.34,0,0,1,.6-.46,2.57,2.57,0,0,1,.92-.15,2.26,2.26,0,0,1,.73.1,1.38,1.38,0,0,1,.51.28,1.19,1.19,0,0,1,.3.36.94.94,0,0,1,.1.38.44.44,0,0,1-.12.3.42.42,0,0,1-.3.13.36.36,0,0,1-.24-.08,1.39,1.39,0,0,1-.18-.26,1.09,1.09,0,0,0-.3-.41.84.84,0,0,0-.56-.14,1,1,0,0,0-.58.15.47.47,0,0,0-.22.38.36.36,0,0,0,.07.24.63.63,0,0,0,.21.18l.26.11.45.12a5.35,5.35,0,0,1,.7.2,2.26,2.26,0,0,1,.54.26,1.19,1.19,0,0,1,.34.4A1.17,1.17,0,0,1,37.64,36.45Z"/><path class="cls-6" d="M15,18V30H33V18Zm5.6,10.8H16.2V26.4h4.4Zm0-3.6H16.2V22.8h4.4Zm5.6,3.6H21.8V26.4h4.4Zm0-3.6H21.8V22.8h4.4Zm5.6,3.6H27.4V26.4h4.4Zm0-3.6H27.4V22.8h4.4Zm0-3.6H16.2V19.2H31.8Z"/><path class="cls-3" d="M15,17V29H33V17Zm5.6,10.8H16.2V25.4h4.4Zm0-3.6H16.2V21.8h4.4Zm5.6,3.6H21.8V25.4h4.4Zm0-3.6H21.8V21.8h4.4Zm5.6,3.6H27.4V25.4h4.4Zm0-3.6H27.4V21.8h4.4Zm0-3.6H16.2V18.2H31.8Z"/></g></g></svg>