<?xml version="1.0" ?><svg viewBox="0 0 48 48" xmlns="http://www.w3.org/2000/svg" xmlns:xlink="http://www.w3.org/1999/xlink"><defs><style>.cls-1{fill:#e1eaf6;}.cls-2{fill:url(#linear-gradient);}.cls-3{fill:#a7c1db;}.cls-4{fill:#c679f7;}.cls-5{fill:#fff;}.cls-6{fill:#eef3f8;}</style><linearGradient gradientUnits="userSpaceOnUse" id="linear-gradient" x1="24" x2="24" y1="5.03" y2="40.35"><stop offset="0" stop-color="#f1f5f9"/><stop offset="1" stop-color="#d8e5f4"/></linearGradient></defs><title/><g id="icons"><g data-name="Layer 3" id="Layer_3"><path class="cls-1" d="M33,40.5H15a5,5,0,0,1-5-5v-25a5,5,0,0,1,5-5H27.52a6,6,0,0,1,4.27,1.77l4.44,4.44A6,6,0,0,1,38,16V35.5A5,5,0,0,1,33,40.5Z"/><path class="cls-2" d="M33,42.5H15a5,5,0,0,1-5-5v-25a5,5,0,0,1,5-5H27.52a6,6,0,0,1,4.27,1.77l4.44,4.44A6,6,0,0,1,38,18V37.5A5,5,0,0,1,33,42.5Z"/><path class="cls-3" d="M36,16H30.83a2.33,2.33,0,0,1-2.33-2.33V9.5a.5.5,0,0,1,1,0v4.17A1.33,1.33,0,0,0,30.83,15H36a.5.5,0,0,1,0,1Z"/><rect class="cls-4" height="8.77" rx="1.91" ry="1.91" width="17.93" x="23.07" y="31.34"/><path class="cls-5" d="M27.37,37.13l-.74-2.92v3.17a.57.57,0,0,1-.12.39.37.37,0,0,1-.31.13.37.37,0,0,1-.3-.13.55.55,0,0,1-.12-.39V33.74a.45.45,0,0,1,.15-.4.78.78,0,0,1,.43-.11h.28a1.11,1.11,0,0,1,.38.05.33.33,0,0,1,.18.17,2.54,2.54,0,0,1,.12.4L28,36.36l.67-2.51a2.32,2.32,0,0,1,.13-.4.29.29,0,0,1,.17-.17,1.11,1.11,0,0,1,.38-.05h.29a.77.77,0,0,1,.42.11.46.46,0,0,1,.16.4v3.64a.57.57,0,0,1-.12.39.41.41,0,0,1-.32.13.38.38,0,0,1-.3-.13.57.57,0,0,1-.12-.39V34.21l-.74,2.92a3.9,3.9,0,0,1-.11.42.56.56,0,0,1-.17.24.47.47,0,0,1-.34.11.51.51,0,0,1-.28-.07.42.42,0,0,1-.17-.18.87.87,0,0,1-.1-.24C27.42,37.32,27.39,37.23,27.37,37.13Z"/><path class="cls-5" d="M32.94,36h-.85v1.3a.6.6,0,0,1-.13.42.42.42,0,0,1-.33.14.41.41,0,0,1-.34-.14.57.57,0,0,1-.13-.42V33.8a.57.57,0,0,1,.14-.43.64.64,0,0,1,.45-.14h1.19a2.85,2.85,0,0,1,.82.09,1.07,1.07,0,0,1,.48.26,1.19,1.19,0,0,1,.32.44,1.59,1.59,0,0,1,.1.59,1.29,1.29,0,0,1-.43,1.06A1.93,1.93,0,0,1,32.94,36Zm-.22-2.11h-.63v1.4h.63a2.15,2.15,0,0,0,.55-.06A.62.62,0,0,0,33.6,35a.65.65,0,0,0,.12-.41.67.67,0,0,0-.18-.49A1.16,1.16,0,0,0,32.72,33.93Z"/><path class="cls-5" d="M36.69,35.05a.72.72,0,0,0,.5-.17.57.57,0,0,0,.21-.48.58.58,0,0,0-.61-.59.93.93,0,0,0-.32,0,.78.78,0,0,0-.2.14,1.57,1.57,0,0,0-.13.23l-.12.26a.22.22,0,0,1-.11.1.41.41,0,0,1-.19,0,.32.32,0,0,1-.23-.1.36.36,0,0,1-.1-.27.75.75,0,0,1,.09-.34,1.35,1.35,0,0,1,.29-.35,1.63,1.63,0,0,1,.47-.26,1.81,1.81,0,0,1,.63-.1,1.94,1.94,0,0,1,.56.08,1.49,1.49,0,0,1,.43.24,1,1,0,0,1,.28.37,1.09,1.09,0,0,1,.1.44,1,1,0,0,1-.14.54,1.93,1.93,0,0,1-.39.44,1.4,1.4,0,0,1,.41.3,1,1,0,0,1,.25.37,1.12,1.12,0,0,1,.09.44,1.44,1.44,0,0,1-.45,1,1.69,1.69,0,0,1-.53.33,2.06,2.06,0,0,1-.68.11,1.6,1.6,0,0,1-.67-.13,1.48,1.48,0,0,1-.49-.34,1.44,1.44,0,0,1-.29-.42.82.82,0,0,1-.1-.35.41.41,0,0,1,.12-.3.42.42,0,0,1,.29-.11.3.3,0,0,1,.28.18,2.15,2.15,0,0,0,.35.65.64.64,0,0,0,.52.21.82.82,0,0,0,.37-.1.86.86,0,0,0,.22-1.29.73.73,0,0,0-.56-.21h-.36a.36.36,0,0,1-.27-.08.32.32,0,0,1-.09-.24.3.3,0,0,1,.11-.24.49.49,0,0,1,.34-.1Z"/><path class="cls-6" d="M21,20v8.41A2.92,2.92,0,0,0,19.5,28,2.3,2.3,0,0,0,17,30a2.3,2.3,0,0,0,2.5,2A2.3,2.3,0,0,0,22,30V22.78l7-1.56v5.19A2.92,2.92,0,0,0,27.5,26,2.3,2.3,0,0,0,25,28a2.3,2.3,0,0,0,2.5,2A2.3,2.3,0,0,0,30,28V18Z"/><path class="cls-3" d="M21,19v8.41A2.92,2.92,0,0,0,19.5,27,2.3,2.3,0,0,0,17,29a2.3,2.3,0,0,0,2.5,2A2.3,2.3,0,0,0,22,29V21.78l7-1.56v5.19A2.92,2.92,0,0,0,27.5,25,2.3,2.3,0,0,0,25,27a2.3,2.3,0,0,0,2.5,2A2.3,2.3,0,0,0,30,27V17Z"/></g></g></svg>