<?xml version="1.0" ?><svg viewBox="0 0 48 48" xmlns="http://www.w3.org/2000/svg" xmlns:xlink="http://www.w3.org/1999/xlink"><defs><style>.cls-1{fill:#e1eaf6;}.cls-2{fill:url(#linear-gradient);}.cls-3{fill:#ce7515;}.cls-4{fill:#fff;}.cls-5{fill:#eef3f8;}.cls-6{fill:#a7c1db;}</style><linearGradient gradientUnits="userSpaceOnUse" id="linear-gradient" x1="24" x2="24" y1="5.03" y2="40.35"><stop offset="0" stop-color="#f1f5f9"/><stop offset="1" stop-color="#d8e5f4"/></linearGradient></defs><title/><g id="icons"><g data-name="Layer 3" id="Layer_3"><path class="cls-1" d="M33,40.5H15a5,5,0,0,1-5-5v-25a5,5,0,0,1,5-5H27.52a6,6,0,0,1,4.27,1.77l4.44,4.44A6,6,0,0,1,38,16V35.5A5,5,0,0,1,33,40.5Z"/><path class="cls-2" d="M33,42.5H15a5,5,0,0,1-5-5v-25a5,5,0,0,1,5-5H27.52a6,6,0,0,1,4.27,1.77l4.44,4.44A6,6,0,0,1,38,18V37.5A5,5,0,0,1,33,42.5Z"/><rect class="cls-3" height="8.77" rx="1.91" ry="1.91" width="17.93" x="24.07" y="31.34"/><path class="cls-4" d="M28.18,37.39l-.74-2.92v3.16a.58.58,0,0,1-.12.4.37.37,0,0,1-.31.13.38.38,0,0,1-.3-.13.58.58,0,0,1-.12-.4V34a.45.45,0,0,1,.15-.4.78.78,0,0,1,.43-.11h.28a1.11,1.11,0,0,1,.38,0,.33.33,0,0,1,.18.17,2.54,2.54,0,0,1,.12.4l.67,2.51.67-2.51a2.32,2.32,0,0,1,.13-.4.29.29,0,0,1,.17-.17,1.11,1.11,0,0,1,.38,0h.29a.77.77,0,0,1,.42.11A.46.46,0,0,1,31,34v3.63a.58.58,0,0,1-.12.4.41.41,0,0,1-.32.13.38.38,0,0,1-.3-.13.58.58,0,0,1-.12-.4V34.47l-.74,2.92a3.9,3.9,0,0,1-.11.42.56.56,0,0,1-.17.24.57.57,0,0,1-.61,0,.52.52,0,0,1-.18-.18,1.33,1.33,0,0,1-.1-.24C28.23,37.58,28.2,37.49,28.18,37.39Z"/><path class="cls-4" d="M33.75,36.29H32.9v1.3a.61.61,0,0,1-.13.43.45.45,0,0,1-.33.14A.46.46,0,0,1,32.1,38,.6.6,0,0,1,32,37.6V34.06a.61.61,0,0,1,.14-.44.69.69,0,0,1,.45-.13h1.19a3.35,3.35,0,0,1,.82.08,1.21,1.21,0,0,1,.8.71,1.55,1.55,0,0,1,.1.59A1.29,1.29,0,0,1,35,35.93,2,2,0,0,1,33.75,36.29Zm-.22-2.1H32.9v1.4h.63a1.75,1.75,0,0,0,.55-.07.61.61,0,0,0,.33-.22.66.66,0,0,0,.12-.41.71.71,0,0,0-.18-.5A1.22,1.22,0,0,0,33.53,34.19Z"/><path class="cls-4" d="M38,37.69V37.1H36.42A.61.61,0,0,1,36,37a.47.47,0,0,1-.15-.37.25.25,0,0,1,0-.12.49.49,0,0,1,.06-.13l.09-.13.12-.15,1.66-2.22a2.72,2.72,0,0,1,.27-.32.33.33,0,0,1,.25-.1c.32,0,.48.18.48.55V36.4h.13a.88.88,0,0,1,.39.07c.1,0,.14.14.14.28a.3.3,0,0,1-.12.27.55.55,0,0,1-.35.08h-.19v.59a.49.49,0,0,1-.11.35.36.36,0,0,1-.28.12A.37.37,0,0,1,38.1,38,.52.52,0,0,1,38,37.69ZM36.65,36.4H38V34.58Z"/><path class="cls-5" d="M22.64,20.71l5.1,3.38a1.7,1.7,0,0,1,0,2.83l-5.1,3.39A1.7,1.7,0,0,1,20,28.89V22.12A1.7,1.7,0,0,1,22.64,20.71Z"/><path class="cls-6" d="M22.64,19.71l5.1,3.38a1.7,1.7,0,0,1,0,2.83l-5.1,3.39A1.7,1.7,0,0,1,20,27.89V21.12A1.7,1.7,0,0,1,22.64,19.71Z"/><path class="cls-6" d="M36,16H30.83a2.33,2.33,0,0,1-2.33-2.33V9.5a.5.5,0,0,1,1,0v4.17A1.33,1.33,0,0,0,30.83,15H36a.5.5,0,0,1,0,1Z"/></g></g></svg>