<?xml version="1.0" ?><svg viewBox="0 0 48 48" xmlns="http://www.w3.org/2000/svg" xmlns:xlink="http://www.w3.org/1999/xlink"><defs><style>.cls-1{fill:#e1eaf6;}.cls-2{fill:url(#linear-gradient);}.cls-3{fill:#eff4f9;}.cls-4{fill:#a7c1db;}.cls-5{fill:#9ac53b;}.cls-6{fill:#fff;}</style><linearGradient gradientUnits="userSpaceOnUse" id="linear-gradient" x1="24" x2="24" y1="5.03" y2="40.35"><stop offset="0" stop-color="#f1f5f9"/><stop offset="1" stop-color="#d8e5f4"/></linearGradient></defs><title/><g id="icons"><g data-name="Layer 3" id="Layer_3"><path class="cls-1" d="M33,40.5H15a5,5,0,0,1-5-5v-25a5,5,0,0,1,5-5H27.52a6,6,0,0,1,4.27,1.77l4.44,4.44A6,6,0,0,1,38,16V35.5A5,5,0,0,1,33,40.5Z"/><path class="cls-2" d="M33,42.5H15a5,5,0,0,1-5-5v-25a5,5,0,0,1,5-5H27.52a6,6,0,0,1,4.27,1.77l4.44,4.44A6,6,0,0,1,38,18V37.5A5,5,0,0,1,33,42.5Z"/><path class="cls-3" d="M19.75,19.47A1.22,1.22,0,0,1,21,18.25h0a.74.74,0,0,0,.74-.75.77.77,0,0,0-.77-.75,2.72,2.72,0,0,0-2.72,2.72v1.06A1.22,1.22,0,0,1,17,21.75a.75.75,0,0,0,0,1.5,1.22,1.22,0,0,1,1.22,1.22v1.06A2.73,2.73,0,0,0,21,28.25a.74.74,0,0,0,.74-.75.77.77,0,0,0-.77-.75,1.22,1.22,0,0,1-1.22-1.22V24.47a2.73,2.73,0,0,0-.84-2,2.73,2.73,0,0,0,.84-2ZM29,21.75a1.22,1.22,0,0,1-1.22-1.22V19.47A2.73,2.73,0,0,0,25,16.75a.74.74,0,0,0-.73.75.76.76,0,0,0,.76.75,1.22,1.22,0,0,1,1.22,1.22v1.06a2.73,2.73,0,0,0,.85,2,2.73,2.73,0,0,0-.85,2v1.06A1.22,1.22,0,0,1,25,26.75h0a.74.74,0,0,0-.73.75.76.76,0,0,0,.76.75,2.72,2.72,0,0,0,2.72-2.72V24.47A1.22,1.22,0,0,1,29,23.25a.75.75,0,0,0,0-1.5Z"/><path class="cls-4" d="M19.75,18.47A1.22,1.22,0,0,1,21,17.25h0a.74.74,0,0,0,.74-.75.77.77,0,0,0-.77-.75,2.72,2.72,0,0,0-2.72,2.72v1.06A1.22,1.22,0,0,1,17,20.75a.75.75,0,0,0,0,1.5,1.22,1.22,0,0,1,1.22,1.22v1.06A2.73,2.73,0,0,0,21,27.25a.74.74,0,0,0,.74-.75.77.77,0,0,0-.77-.75,1.22,1.22,0,0,1-1.22-1.22V23.47a2.73,2.73,0,0,0-.84-2,2.73,2.73,0,0,0,.84-2ZM29,20.75a1.22,1.22,0,0,1-1.22-1.22V18.47A2.73,2.73,0,0,0,25,15.75a.74.74,0,0,0-.73.75.76.76,0,0,0,.76.75,1.22,1.22,0,0,1,1.22,1.22v1.06a2.73,2.73,0,0,0,.85,2,2.73,2.73,0,0,0-.85,2v1.06A1.22,1.22,0,0,1,25,25.75h0a.74.74,0,0,0-.73.75.76.76,0,0,0,.76.75,2.72,2.72,0,0,0,2.72-2.72V23.47A1.22,1.22,0,0,1,29,22.25a.75.75,0,0,0,0-1.5Z"/><path class="cls-4" d="M36,16H30.83a2.33,2.33,0,0,1-2.33-2.33V9.5a.5.5,0,0,1,1,0v4.17A1.33,1.33,0,0,0,30.83,15H36a.5.5,0,0,1,0,1Z"/><rect class="cls-5" height="8.77" rx="1.91" ry="1.91" width="17.93" x="23.07" y="31.34"/><path class="cls-6" d="M29.6,36.63a1.25,1.25,0,0,1-.1.48,2.11,2.11,0,0,1-.34.5,1.85,1.85,0,0,1-.6.4,2.17,2.17,0,0,1-.84.15,2.73,2.73,0,0,1-.66-.07,2.09,2.09,0,0,1-.54-.21,1.79,1.79,0,0,1-.44-.39,2,2,0,0,1-.31-.48,2.75,2.75,0,0,1-.2-.57,3.34,3.34,0,0,1-.06-.65,2.78,2.78,0,0,1,.16-1,2.2,2.2,0,0,1,.46-.75,1.88,1.88,0,0,1,.71-.47,2.27,2.27,0,0,1,.86-.17,2.13,2.13,0,0,1,1,.23,1.76,1.76,0,0,1,.67.55,1.08,1.08,0,0,1,.23.61.46.46,0,0,1-.11.29.37.37,0,0,1-.27.12.37.37,0,0,1-.27-.09,1,1,0,0,1-.2-.29,1.3,1.3,0,0,0-.43-.51,1,1,0,0,0-.6-.17,1.11,1.11,0,0,0-.92.44,2,2,0,0,0-.34,1.24,2.33,2.33,0,0,0,.15.89,1.2,1.2,0,0,0,.43.53,1.23,1.23,0,0,0,.65.17,1.07,1.07,0,0,0,.67-.2,1.11,1.11,0,0,0,.42-.58,1.05,1.05,0,0,1,.15-.3.35.35,0,0,1,.28-.11.39.39,0,0,1,.28.11A.4.4,0,0,1,29.6,36.63Z"/><path class="cls-6" d="M33.93,36.71a1.29,1.29,0,0,1-.22.74,1.39,1.39,0,0,1-.62.52,2.32,2.32,0,0,1-1,.19A2.15,2.15,0,0,1,31,37.9a1.46,1.46,0,0,1-.5-.49,1.1,1.1,0,0,1-.2-.6.4.4,0,0,1,.12-.29.41.41,0,0,1,.3-.12.35.35,0,0,1,.25.1.84.84,0,0,1,.17.27,1.81,1.81,0,0,0,.19.37.7.7,0,0,0,.29.24,1,1,0,0,0,.48.1,1.13,1.13,0,0,0,.67-.19A.57.57,0,0,0,33,36.8a.53.53,0,0,0-.14-.37.9.9,0,0,0-.36-.21,4.7,4.7,0,0,0-.59-.16,5.06,5.06,0,0,1-.83-.27,1.42,1.42,0,0,1-.53-.43,1.09,1.09,0,0,1-.19-.66,1.21,1.21,0,0,1,.2-.68,1.4,1.4,0,0,1,.6-.45,2.56,2.56,0,0,1,.92-.16,2.31,2.31,0,0,1,.74.11,1.56,1.56,0,0,1,.51.28,1.07,1.07,0,0,1,.29.36.76.76,0,0,1,.1.37.41.41,0,0,1-.12.3.37.37,0,0,1-.29.14.33.33,0,0,1-.24-.08,1,1,0,0,1-.18-.26,1.36,1.36,0,0,0-.3-.41.88.88,0,0,0-.57-.15,1,1,0,0,0-.58.16.46.46,0,0,0-.22.38.4.4,0,0,0,.07.24.6.6,0,0,0,.21.17l.27.12.44.11c.26.07.5.13.71.21a2.18,2.18,0,0,1,.53.26,1.22,1.22,0,0,1,.35.4A1.29,1.29,0,0,1,33.93,36.71Z"/><path class="cls-6" d="M38.21,36.71a1.29,1.29,0,0,1-.22.74,1.39,1.39,0,0,1-.62.52,2.32,2.32,0,0,1-1,.19,2.15,2.15,0,0,1-1.13-.26,1.46,1.46,0,0,1-.5-.49,1,1,0,0,1-.2-.6.4.4,0,0,1,.12-.29.39.39,0,0,1,.3-.12.31.31,0,0,1,.24.1.71.71,0,0,1,.18.27,1.81,1.81,0,0,0,.19.37.73.73,0,0,0,.28.24,1,1,0,0,0,.49.1,1.13,1.13,0,0,0,.67-.19.59.59,0,0,0,.26-.49.53.53,0,0,0-.14-.37.9.9,0,0,0-.36-.21,4.7,4.7,0,0,0-.59-.16,4.76,4.76,0,0,1-.83-.27,1.42,1.42,0,0,1-.53-.43,1.09,1.09,0,0,1-.19-.66,1.21,1.21,0,0,1,.2-.68,1.4,1.4,0,0,1,.6-.45,2.56,2.56,0,0,1,.92-.16,2.24,2.24,0,0,1,.73.11,1.52,1.52,0,0,1,.52.28,1.07,1.07,0,0,1,.29.36.76.76,0,0,1,.1.37.41.41,0,0,1-.12.3.38.38,0,0,1-.29.14.37.37,0,0,1-.25-.08,1.85,1.85,0,0,1-.18-.26,1.09,1.09,0,0,0-.3-.41.83.83,0,0,0-.56-.15,1,1,0,0,0-.58.16.46.46,0,0,0-.22.38.4.4,0,0,0,.07.24.6.6,0,0,0,.21.17l.27.12.44.11c.26.07.49.13.7.21a2.26,2.26,0,0,1,.54.26,1.09,1.09,0,0,1,.34.4A1.17,1.17,0,0,1,38.21,36.71Z"/></g></g></svg>