<?xml version="1.0" ?><svg viewBox="0 0 48 48" xmlns="http://www.w3.org/2000/svg" xmlns:xlink="http://www.w3.org/1999/xlink"><defs><style>.cls-1{fill:#e1eaf6;}.cls-2{fill:url(#linear-gradient);}.cls-3{fill:#eff4f9;}.cls-4{fill:#a7c1db;}.cls-5{fill:#4573ce;}.cls-6{fill:#fff;}</style><linearGradient gradientUnits="userSpaceOnUse" id="linear-gradient" x1="24" x2="24" y1="5.03" y2="40.35"><stop offset="0" stop-color="#f1f5f9"/><stop offset="1" stop-color="#d8e5f4"/></linearGradient></defs><title/><g id="icons"><g data-name="Layer 3" id="Layer_3"><path class="cls-1" d="M33,40.5H15a5,5,0,0,1-5-5v-25a5,5,0,0,1,5-5H27.52a6,6,0,0,1,4.27,1.77l4.44,4.44A6,6,0,0,1,38,16V35.5A5,5,0,0,1,33,40.5Z"/><path class="cls-2" d="M33,42.5H15a5,5,0,0,1-5-5v-25a5,5,0,0,1,5-5H27.52a6,6,0,0,1,4.27,1.77l4.44,4.44A6,6,0,0,1,38,18V37.5A5,5,0,0,1,33,42.5Z"/><path class="cls-3" d="M26.42,20a1.84,1.84,0,1,0-1.84-1.83A1.83,1.83,0,0,0,26.42,20Zm6.3,9.67L28.32,23a.53.53,0,0,0-.89,0L25.5,26l-3.69-5.57a1.12,1.12,0,0,0-1.86,0l-5.57,8.39a1.11,1.11,0,0,0,.93,1.73h17A.54.54,0,0,0,32.72,29.67Z"/><path class="cls-4" d="M26.42,19.17a1.84,1.84,0,1,0-1.84-1.84A1.83,1.83,0,0,0,26.42,19.17Zm6.3,9.33-4.4-6.63a.53.53,0,0,0-.89,0L25.5,24.78l-3.69-5.57a1.12,1.12,0,0,0-1.86,0L14.38,27.6a1.11,1.11,0,0,0,.93,1.73h17A.54.54,0,0,0,32.72,28.5Z"/><path class="cls-4" d="M36,16H30.83a2.33,2.33,0,0,1-2.33-2.33V9.5a.5.5,0,0,1,1,0v4.17A1.33,1.33,0,0,0,30.83,15H36a.5.5,0,0,1,0,1Z"/><rect class="cls-5" height="8.77" rx="1.91" ry="1.91" width="17.93" x="24.07" y="31.34"/><path class="cls-6" d="M28.47,36.29h-.85v1.3a.61.61,0,0,1-.13.43.45.45,0,0,1-.33.14.46.46,0,0,1-.34-.14.66.66,0,0,1-.13-.42V34.06a.61.61,0,0,1,.14-.44.71.71,0,0,1,.45-.13h1.19a3.35,3.35,0,0,1,.82.08,1.36,1.36,0,0,1,.49.26,1.21,1.21,0,0,1,.31.45,1.55,1.55,0,0,1,.1.59,1.29,1.29,0,0,1-.43,1.06A2,2,0,0,1,28.47,36.29Zm-.22-2.1h-.63v1.4h.63a1.75,1.75,0,0,0,.55-.07.63.63,0,0,0,.34-.22.73.73,0,0,0,.11-.41.71.71,0,0,0-.18-.5A1.22,1.22,0,0,0,28.25,34.19Z"/><path class="cls-6" d="M34.46,36.71a1.36,1.36,0,0,1-.21.74,1.48,1.48,0,0,1-.63.52,2.32,2.32,0,0,1-1,.19,2.09,2.09,0,0,1-1.12-.26,1.41,1.41,0,0,1-.51-.49,1.1,1.1,0,0,1-.2-.6.4.4,0,0,1,.12-.29.41.41,0,0,1,.3-.12.33.33,0,0,1,.25.1.84.84,0,0,1,.17.27,1.81,1.81,0,0,0,.19.37.7.7,0,0,0,.29.24,1,1,0,0,0,.48.1,1.13,1.13,0,0,0,.67-.19.57.57,0,0,0,.26-.49.49.49,0,0,0-.14-.37.9.9,0,0,0-.36-.21,4.26,4.26,0,0,0-.59-.16,5.06,5.06,0,0,1-.83-.27,1.42,1.42,0,0,1-.53-.43,1.09,1.09,0,0,1-.19-.66,1.14,1.14,0,0,1,.21-.68,1.31,1.31,0,0,1,.59-.45,2.56,2.56,0,0,1,.92-.16,2.31,2.31,0,0,1,.74.11,1.56,1.56,0,0,1,.51.28,1.25,1.25,0,0,1,.3.36.87.87,0,0,1,.09.37.41.41,0,0,1-.12.3.37.37,0,0,1-.29.14.33.33,0,0,1-.24-.08,1,1,0,0,1-.18-.26,1.36,1.36,0,0,0-.3-.41.88.88,0,0,0-.57-.15,1,1,0,0,0-.58.16.46.46,0,0,0-.22.38.48.48,0,0,0,.07.24A.6.6,0,0,0,32,35l.27.12.44.11c.26.07.5.13.71.21a2.18,2.18,0,0,1,.53.26,1.22,1.22,0,0,1,.35.4A1.29,1.29,0,0,1,34.46,36.71Z"/><path class="cls-6" d="M35.83,33.49H37a3.23,3.23,0,0,1,.81.09,1.52,1.52,0,0,1,.61.33,2.31,2.31,0,0,1,.72,1.86,3.57,3.57,0,0,1-.07.76,2.2,2.2,0,0,1-.22.61,1.69,1.69,0,0,1-.39.49,1.48,1.48,0,0,1-.4.27,1.59,1.59,0,0,1-.47.14,3.32,3.32,0,0,1-.57,0H35.84a.78.78,0,0,1-.38-.07.41.41,0,0,1-.17-.22,1.63,1.63,0,0,1,0-.36V34.06a.58.58,0,0,1,.14-.43A.61.61,0,0,1,35.83,33.49Zm.36.74v3.11h1.06l.28-.06a.72.72,0,0,0,.24-.14,1.72,1.72,0,0,0,.47-1.36,2,2,0,0,0-.21-1,.93.93,0,0,0-.5-.43,2.6,2.6,0,0,0-.73-.09Z"/></g></g></svg>