<?xml version="1.0" ?><svg viewBox="0 0 48 48" xmlns="http://www.w3.org/2000/svg" xmlns:xlink="http://www.w3.org/1999/xlink"><defs><style>.cls-1{fill:#e1eaf6;}.cls-2{fill:url(#linear-gradient);}.cls-3{fill:#a7c1db;}.cls-4{fill:#a86ef4;}.cls-5{fill:#fff;}.cls-6{fill:#eff4f9;}</style><linearGradient gradientUnits="userSpaceOnUse" id="linear-gradient" x1="24" x2="24" y1="5.03" y2="40.35"><stop offset="0" stop-color="#f1f5f9"/><stop offset="1" stop-color="#d8e5f4"/></linearGradient></defs><title/><g id="icons"><g data-name="Layer 3" id="Layer_3"><path class="cls-1" d="M33,40.5H15a5,5,0,0,1-5-5v-25a5,5,0,0,1,5-5H27.52a6,6,0,0,1,4.27,1.77l4.44,4.44A6,6,0,0,1,38,16V35.5A5,5,0,0,1,33,40.5Z"/><path class="cls-2" d="M33,42.5H15a5,5,0,0,1-5-5v-25a5,5,0,0,1,5-5H27.52a6,6,0,0,1,4.27,1.77l4.44,4.44A6,6,0,0,1,38,18V37.5A5,5,0,0,1,33,42.5Z"/><path class="cls-3" d="M36,16H30.83a2.33,2.33,0,0,1-2.33-2.33V9.5a.5.5,0,0,1,1,0v4.17A1.33,1.33,0,0,0,30.83,15H36a.5.5,0,0,1,0,1Z"/><rect class="cls-4" height="8.77" rx="1.91" ry="1.91" width="17.93" x="23.07" y="31.34"/><path class="cls-5" d="M31.25,36v.88a1,1,0,0,1,0,.28.44.44,0,0,1-.12.19,1.43,1.43,0,0,1-.24.16,4,4,0,0,1-.8.33,3.22,3.22,0,0,1-.84.1,2.7,2.7,0,0,1-1-.16,2.18,2.18,0,0,1-.74-.47,2.22,2.22,0,0,1-.47-.75,2.86,2.86,0,0,1-.17-1,3.05,3.05,0,0,1,.16-1,1.95,1.95,0,0,1,1.23-1.23,2.89,2.89,0,0,1,1-.16,2.57,2.57,0,0,1,.82.12,1.86,1.86,0,0,1,.58.31A1.32,1.32,0,0,1,31,34a.76.76,0,0,1,.12.37.42.42,0,0,1-.13.3.47.47,0,0,1-.32.12.43.43,0,0,1-.19,0,.47.47,0,0,1-.15-.13,4,4,0,0,0-.3-.41A.8.8,0,0,0,29.7,34a1.08,1.08,0,0,0-.51-.1,1.5,1.5,0,0,0-.58.11,1.27,1.27,0,0,0-.43.33,1.56,1.56,0,0,0-.28.51,2.48,2.48,0,0,0-.09.68,1.87,1.87,0,0,0,.37,1.25,1.28,1.28,0,0,0,1,.43,2,2,0,0,0,.61-.08,4,4,0,0,0,.58-.24v-.75h-.73a.71.71,0,0,1-.39-.08.27.27,0,0,1-.13-.26.36.36,0,0,1,.11-.26.45.45,0,0,1,.3-.1h1.06a1.06,1.06,0,0,1,.33,0,.32.32,0,0,1,.21.15A.6.6,0,0,1,31.25,36Z"/><path class="cls-5" d="M32.17,37.34V33.72a.57.57,0,0,1,.13-.42.39.39,0,0,1,.33-.14.45.45,0,0,1,.34.13.61.61,0,0,1,.13.43v3.62a.57.57,0,0,1-.13.42.42.42,0,0,1-.34.14.42.42,0,0,1-.33-.14A.59.59,0,0,1,32.17,37.34Z"/><path class="cls-5" d="M36.88,34H35.05v1.18h1.53a.47.47,0,0,1,.32.09.33.33,0,0,1,.11.26.33.33,0,0,1-.11.25.49.49,0,0,1-.32.09H35.05v1.52a.57.57,0,0,1-.13.42.4.4,0,0,1-.33.14.42.42,0,0,1-.34-.14.62.62,0,0,1-.13-.42V33.8a.73.73,0,0,1,.06-.32.35.35,0,0,1,.19-.19.73.73,0,0,1,.32-.06h2.19a.5.5,0,0,1,.33.1.31.31,0,0,1,.11.26.3.3,0,0,1-.11.26A.45.45,0,0,1,36.88,34Z"/><polygon class="cls-6" points="31 29.5 28 29.5 28 27.5 29 27.5 29 26.5 31 26.5 31 29.5"/><rect class="cls-6" height="2" width="3.33" x="22.33" y="27.5"/><polygon class="cls-6" points="20 29.5 17 29.5 17 26.5 19 26.5 19 27.5 20 27.5 20 29.5"/><polygon class="cls-6" points="19 21.5 17 21.5 17 18.5 20 18.5 20 20.5 19 20.5 19 21.5"/><rect class="cls-6" height="2" width="3.33" x="22.33" y="18.5"/><polygon class="cls-6" points="31 21.5 29 21.5 29 20.5 28 20.5 28 18.5 31 18.5 31 21.5"/><polygon class="cls-3" points="31 28.5 28 28.5 28 26.5 29 26.5 29 25.5 31 25.5 31 28.5"/><rect class="cls-3" height="2" width="3.33" x="22.33" y="26.5"/><polygon class="cls-3" points="20 28.5 17 28.5 17 25.5 19 25.5 19 26.5 20 26.5 20 28.5"/><polygon class="cls-3" points="19 20.5 17 20.5 17 17.5 20 17.5 20 19.5 19 19.5 19 20.5"/><rect class="cls-3" height="2" width="3.33" x="22.33" y="17.5"/><polygon class="cls-3" points="31 20.5 29 20.5 29 19.5 28 19.5 28 17.5 31 17.5 31 20.5"/></g></g></svg>