<?xml version="1.0" ?><svg viewBox="0 0 48 48" xmlns="http://www.w3.org/2000/svg" xmlns:xlink="http://www.w3.org/1999/xlink"><defs><style>.cls-1{fill:#e1eaf6;}.cls-2{fill:url(#linear-gradient);}.cls-3{fill:#eef3f8;}.cls-4{fill:#a7c1db;}.cls-5{fill:#60aada;}.cls-6{fill:#fff;}</style><linearGradient gradientUnits="userSpaceOnUse" id="linear-gradient" x1="24" x2="24" y1="5.03" y2="40.35"><stop offset="0" stop-color="#f1f5f9"/><stop offset="1" stop-color="#d8e5f4"/></linearGradient></defs><title/><g id="icons"><g data-name="Layer 3" id="Layer_3"><path class="cls-1" d="M33,40.5H15a5,5,0,0,1-5-5v-25a5,5,0,0,1,5-5H27.52a6,6,0,0,1,4.27,1.77l4.44,4.44A6,6,0,0,1,38,16V35.5A5,5,0,0,1,33,40.5Z"/><path class="cls-2" d="M33,42.5H15a5,5,0,0,1-5-5v-25a5,5,0,0,1,5-5H27.52a6,6,0,0,1,4.27,1.77l4.44,4.44A6,6,0,0,1,38,18V37.5A5,5,0,0,1,33,42.5Z"/><path class="cls-3" d="M15.76,18.93h5.6l-.52,2h-.23a1.13,1.13,0,0,0-.55.09.5.5,0,0,0-.22.28,2,2,0,0,0,0,.46l.33,4.56,2.18-3.57-.08-1a1.13,1.13,0,0,0-.21-.63.93.93,0,0,0-.59-.2l.52-2h5.32l-.52,2h-.43a1,1,0,0,0-.52.11.44.44,0,0,0-.22.31,1.6,1.6,0,0,0,0,.55l.31,3.79,2.25-3.79a2.91,2.91,0,0,0,.27-.56.3.3,0,0,0-.08-.31,1.22,1.22,0,0,0-.61-.1h-.24l.52-2h4.75l-.52,2a2.46,2.46,0,0,0-.69.07,1,1,0,0,0-.32.2,3.52,3.52,0,0,0-.51.7L26,29.49H23.15l-.5-4.24L20,29.49H17.15l-.86-7.55a2,2,0,0,0-.19-.67.44.44,0,0,0-.21-.23,2.33,2.33,0,0,0-.65-.07Z"/><path class="cls-4" d="M15.76,17.93h5.6l-.52,2h-.23a1.13,1.13,0,0,0-.55.09.5.5,0,0,0-.22.28,2,2,0,0,0,0,.46l.33,4.56,2.18-3.57-.08-1a1.13,1.13,0,0,0-.21-.63.93.93,0,0,0-.59-.2l.52-2h5.32l-.52,2h-.43a1,1,0,0,0-.52.11.44.44,0,0,0-.22.31,1.6,1.6,0,0,0,0,.55l.31,3.79,2.25-3.79a2.91,2.91,0,0,0,.27-.56.3.3,0,0,0-.08-.31,1.22,1.22,0,0,0-.61-.1h-.24l.52-2h4.75l-.52,2a2.46,2.46,0,0,0-.69.07,1,1,0,0,0-.32.2,3.52,3.52,0,0,0-.51.7L26,28.49H23.15l-.5-4.24L20,28.49H17.15l-.86-7.55a2,2,0,0,0-.19-.67.44.44,0,0,0-.21-.23,2.33,2.33,0,0,0-.65-.07Z"/><path class="cls-4" d="M36,16H30.83a2.33,2.33,0,0,1-2.33-2.33V9.5a.5.5,0,0,1,1,0v4.17A1.33,1.33,0,0,0,30.83,15H36a.5.5,0,0,1,0,1Z"/><rect class="cls-5" height="8.77" rx="1.91" ry="1.91" width="17.93" x="23.07" y="31.34"/><path class="cls-6" d="M25.82,33.23H27a3.12,3.12,0,0,1,.81.09,1.56,1.56,0,0,1,.62.33,2.32,2.32,0,0,1,.72,1.87,3.52,3.52,0,0,1-.08.75,2.08,2.08,0,0,1-.22.62,2.22,2.22,0,0,1-.38.49,1.49,1.49,0,0,1-.41.26,1.43,1.43,0,0,1-.47.14,3.27,3.27,0,0,1-.57,0H25.84a.74.74,0,0,1-.38-.08.34.34,0,0,1-.17-.22,1.19,1.19,0,0,1,0-.36V33.8a.5.5,0,0,1,.57-.57Zm.36.74v3.12h.71l.36,0a.88.88,0,0,0,.27-.06.68.68,0,0,0,.25-.14,1.7,1.7,0,0,0,.46-1.36,2.11,2.11,0,0,0-.2-1,1,1,0,0,0-.51-.43A2.53,2.53,0,0,0,26.8,34Z"/><path class="cls-6" d="M32,33.16a2.38,2.38,0,0,1,1.23.29,1.88,1.88,0,0,1,.78.82,2.88,2.88,0,0,1,.26,1.25,3,3,0,0,1-.15,1,2.11,2.11,0,0,1-.43.76,1.86,1.86,0,0,1-.71.48,2.8,2.8,0,0,1-1.92,0,1.92,1.92,0,0,1-.71-.49,2,2,0,0,1-.43-.76,3,3,0,0,1-.15-1,3,3,0,0,1,.15-1,2.11,2.11,0,0,1,.44-.76,2,2,0,0,1,.7-.47A2.54,2.54,0,0,1,32,33.16Zm1.33,2.36a2.16,2.16,0,0,0-.17-.88,1.28,1.28,0,0,0-.46-.56,1.36,1.36,0,0,0-.7-.19,1.26,1.26,0,0,0-.51.11,1.12,1.12,0,0,0-.41.3,1.7,1.7,0,0,0-.27.52,2.46,2.46,0,0,0-.1.7,2.52,2.52,0,0,0,.1.7,1.48,1.48,0,0,0,.28.53,1.2,1.2,0,0,0,.41.31,1.27,1.27,0,0,0,.52.1,1.34,1.34,0,0,0,.65-.17,1.27,1.27,0,0,0,.48-.56A2,2,0,0,0,33.34,35.52Z"/><path class="cls-6" d="M39,36.38a1.27,1.27,0,0,1-.11.47,1.71,1.71,0,0,1-.34.5,1.81,1.81,0,0,1-.59.4,2.17,2.17,0,0,1-.84.15,2.62,2.62,0,0,1-.66-.07,1.69,1.69,0,0,1-1-.59,2.44,2.44,0,0,1-.5-1.06,2.67,2.67,0,0,1-.07-.64,3.08,3.08,0,0,1,.16-1,2.08,2.08,0,0,1,.47-.75,2,2,0,0,1,.7-.47,2.27,2.27,0,0,1,.86-.16,2.12,2.12,0,0,1,1,.22,1.77,1.77,0,0,1,.67.55,1,1,0,0,1,.23.62.38.38,0,0,1-.11.28.37.37,0,0,1-.27.12.41.41,0,0,1-.27-.08,1.18,1.18,0,0,1-.2-.3,1.46,1.46,0,0,0-.43-.51,1,1,0,0,0-.6-.17,1.12,1.12,0,0,0-.92.44,2,2,0,0,0-.34,1.24,2.54,2.54,0,0,0,.15.89,1.22,1.22,0,0,0,.43.53,1.17,1.17,0,0,0,.65.17,1.13,1.13,0,0,0,.67-.19,1.18,1.18,0,0,0,.42-.59,1.05,1.05,0,0,1,.15-.3.35.35,0,0,1,.28-.11.4.4,0,0,1,.29.12A.37.37,0,0,1,39,36.38Z"/></g></g></svg>