<?xml version="1.0" ?><svg viewBox="0 0 48 48" xmlns="http://www.w3.org/2000/svg" xmlns:xlink="http://www.w3.org/1999/xlink"><defs><style>.cls-1{fill:#e1eaf6;}.cls-2{fill:url(#linear-gradient);}.cls-3{fill:#eff4f9;}.cls-4{fill:#a7c1db;}.cls-5{fill:#65d3e5;}.cls-6{fill:#fff;}</style><linearGradient gradientUnits="userSpaceOnUse" id="linear-gradient" x1="24" x2="24" y1="5.03" y2="40.35"><stop offset="0" stop-color="#f1f5f9"/><stop offset="1" stop-color="#d8e5f4"/></linearGradient></defs><title/><g id="icons"><g data-name="Layer 3" id="Layer_3"><path class="cls-1" d="M33,40.5H15a5,5,0,0,1-5-5v-25a5,5,0,0,1,5-5H27.52a6,6,0,0,1,4.27,1.77l4.44,4.44A6,6,0,0,1,38,16V35.5A5,5,0,0,1,33,40.5Z"/><path class="cls-2" d="M33,42.5H15a5,5,0,0,1-5-5v-25a5,5,0,0,1,5-5H27.52a6,6,0,0,1,4.27,1.77l4.44,4.44A6,6,0,0,1,38,18V37.5A5,5,0,0,1,33,42.5Z"/><path class="cls-3" d="M26.42,20a1.84,1.84,0,1,0-1.84-1.83A1.83,1.83,0,0,0,26.42,20Zm6.3,9.67L28.32,23a.53.53,0,0,0-.89,0L25.5,26l-3.69-5.57a1.12,1.12,0,0,0-1.86,0l-5.57,8.39a1.11,1.11,0,0,0,.93,1.73h17A.54.54,0,0,0,32.72,29.67Z"/><path class="cls-4" d="M26.42,19.17a1.84,1.84,0,1,0-1.84-1.84A1.83,1.83,0,0,0,26.42,19.17Zm6.3,9.33-4.4-6.63a.53.53,0,0,0-.89,0L25.5,24.78l-3.69-5.57a1.12,1.12,0,0,0-1.86,0L14.38,27.6a1.11,1.11,0,0,0,.93,1.73h17A.54.54,0,0,0,32.72,28.5Z"/><rect class="cls-5" height="8.77" rx="1.91" ry="1.91" width="17.93" x="24.07" y="31.34"/><path class="cls-6" d="M29.5,34v2.4a4.16,4.16,0,0,1,0,.54,1.93,1.93,0,0,1-.12.44,1.24,1.24,0,0,1-.52.59,1.7,1.7,0,0,1-.87.21,1.75,1.75,0,0,1-.78-.15,1.1,1.1,0,0,1-.51-.47,2,2,0,0,1-.16-.41,1.65,1.65,0,0,1-.06-.43.45.45,0,0,1,.12-.34.47.47,0,0,1,.31-.11.34.34,0,0,1,.28.1.9.9,0,0,1,.15.34,2.84,2.84,0,0,0,.1.38.64.64,0,0,0,.18.25.53.53,0,0,0,.36.1c.41,0,.62-.3.62-.9V34a.67.67,0,0,1,.12-.43.43.43,0,0,1,.34-.14.46.46,0,0,1,.34.14A.67.67,0,0,1,29.5,34Z"/><path class="cls-6" d="M32.29,36.29h-.86v1.3a.61.61,0,0,1-.13.43.45.45,0,0,1-.33.14.46.46,0,0,1-.34-.14.66.66,0,0,1-.13-.42V34.06a.57.57,0,0,1,.15-.44.66.66,0,0,1,.44-.13h1.2a3.32,3.32,0,0,1,.81.08,1.36,1.36,0,0,1,.49.26,1.21,1.21,0,0,1,.31.45,1.55,1.55,0,0,1,.11.59,1.3,1.3,0,0,1-.44,1.06A1.94,1.94,0,0,1,32.29,36.29Zm-.23-2.1h-.63v1.4h.63a1.75,1.75,0,0,0,.55-.07A.63.63,0,0,0,33,35.3a.73.73,0,0,0,.11-.41.71.71,0,0,0-.18-.5A1.2,1.2,0,0,0,32.06,34.19Z"/><path class="cls-6" d="M39,36.22v.88a1,1,0,0,1,0,.28.44.44,0,0,1-.12.19,2.5,2.5,0,0,1-.24.16,4,4,0,0,1-.8.33,3.22,3.22,0,0,1-.84.1A2.7,2.7,0,0,1,36,38a2,2,0,0,1-1.21-1.23,2.76,2.76,0,0,1-.17-1,3,3,0,0,1,.16-1A1.95,1.95,0,0,1,36,33.58a2.89,2.89,0,0,1,1-.17,2.31,2.31,0,0,1,.82.13,1.68,1.68,0,0,1,.58.31,1.22,1.22,0,0,1,.33.4.76.76,0,0,1,.12.37.42.42,0,0,1-.13.3.47.47,0,0,1-.32.12.43.43,0,0,1-.19,0,.5.5,0,0,1-.15-.14,3.71,3.71,0,0,0-.3-.4.82.82,0,0,0-.32-.24,1.23,1.23,0,0,0-.51-.09,1.5,1.5,0,0,0-.58.11,1.24,1.24,0,0,0-.43.32,1.73,1.73,0,0,0-.28.52,2.43,2.43,0,0,0-.09.68A1.87,1.87,0,0,0,35.91,37a1.28,1.28,0,0,0,1,.43,2.37,2.37,0,0,0,.61-.08,4,4,0,0,0,.58-.24v-.75H37.4a.81.81,0,0,1-.39-.08.27.27,0,0,1-.13-.26.35.35,0,0,1,.11-.26.45.45,0,0,1,.3-.1h1.06a1.06,1.06,0,0,1,.33,0,.32.32,0,0,1,.21.15A.6.6,0,0,1,39,36.22Z"/><path class="cls-4" d="M36,16H30.83a2.33,2.33,0,0,1-2.33-2.33V9.5a.5.5,0,0,1,1,0v4.17A1.33,1.33,0,0,0,30.83,15H36a.5.5,0,0,1,0,1Z"/></g></g></svg>